# AST/ASF file generated using VICON BodyLanguage
# -----------------------------------------------
:version 1.10
:name VICON
:units
  mass 1.0
  length 0.45
  angle deg
:documentation
   .ast/.asf automatically generated from VICON data using
   VICON BodyBuilder and BodyLanguage model FoxedUp or BRILLIANT.MOD
:root
   order TX TY TZ RX RY RZ
   axis XYZ
   position 0 0 0  
   orientation 0 0 0 
:bonedata
  begin
     id 1 
     name lhipjoint
     direction 0.610259 -0.730986 0.305356 
     length 2.50941 
     axis 0 0 0  XYZ
  end
  begin
     id 2 
     name lfemur
     direction 0.34202 -0.939693 0  
     length 7.48822  
     axis 0 0 20  XYZ
    dof rx ry rz
    limits (-160.0 20.0)
           (-70.0 70.0)
           (-60.0 70.0)
  end
  begin
     id 3 
     name ltibia
     direction 0.34202 -0.939693 0   
     length 7.60141   
     axis 0 0 20   XYZ
    dof rx
    limits (-10.0 170.0)
  end
  begin
     id 4 
     name lfoot
     direction 0.0673488 -0.185039 0.980421   
     length 2.04049   
     axis -90 7.62852e-016 20   XYZ
    dof rx rz
    limits (-45.0 90.0)
           (-70.0 20.0)
  end
  begin
     id 5 
     name ltoes
     direction 1.5356e-011 -4.21729e-011 1   
     length 1.02897   
     axis -90 7.62852e-016 20   XYZ
    dof rx
    limits (-90.0 20.0)
  end
  begin
     id 6 
     name rhipjoint
     direction -0.57612 -0.754205 0.315056   
     length 2.43216  
     axis 0 0 0  XYZ 
  end
  begin
     id 7 
     name rfemur
     direction -0.34202 -0.939693 0   
     length 7.42799   
     axis 0 0 -20   XYZ
    dof rx ry rz
    limits (-160.0 20.0)
           (-70.0 70.0)
           (-70.0 60.0)
  end
  begin
     id 8 
     name rtibia
     direction -0.34202 -0.939693 0   
     length 7.69484   
     axis 0 0 -20   XYZ
    dof rx
    limits (-10.0 170.0)
 end
 begin
     id 9 
     name rfoot
     direction -0.111837 -0.30727 0.945028   
     length 2.15769  
     axis -90 -7.62852e-016 -20   XYZ
    dof rx rz
    limits (-45.0 90.0)
           (-20.0 70.0)
  end
  begin
     id 10 
     name rtoes
     direction -1.53539e-011 -4.21878e-011 1   
     length 1.07391   
     axis -90 -7.62852e-016 -20   XYZ
    dof rx
    limits (-90.0 20.0)
  end
  begin
     id 11 
     name lowerback
     direction 0.00552624 0.990109 -0.140195   
     length 2.12403   
     axis 0 0 0   XYZ
    dof rx ry rz
    limits (-20.0 45.0)
           (-30.0 30.0)
           (-30.0 30.0)
  end
  begin
     id 12 
     name upperback
     direction 0.00361898 0.999976 -0.00584723   
     length 2.13232   
     axis 0 0 0   XYZ
    dof rx ry rz
    limits (-20.0 45.0)
           (-30.0 30.0)
           (-30.0 30.0)
  end
  begin
     id 13 
     name thorax
     direction -0.000331275 0.998253 0.0590847   
     length 2.17688   
     axis 0 0 0   XYZ
    dof rx ry rz
    limits (-20.0 45.0)
           (-30.0 30.0)
           (-30.0 30.0)
  end
  begin
     id 14 
     name lowerneck
     direction -0.0561561 0.979832 0.19177   
     length 1.64159   
     axis 0 0 0   XYZ
    dof rx ry rz
    limits (-20.0 45.0)
           (-30.0 30.0)
           (-30.0 30.0)
  end
  begin
     id 15 
     name upperneck
     direction 0.0827153 0.979385 -0.184293   
     length 1.68939   
     axis 0 0 0   XYZ
    dof rx ry rz
    limits (-20.0 45.0)
           (-30.0 30.0)
           (-30.0 30.0)
  end
  begin
     id 16
     name head
     direction 0.0278583 0.995936 -0.0856488  
     length 1.70207  
     axis 0 0 0   XYZ
    dof rx ry rz
    limits (-20.0 45.0)
           (-30.0 30.0)
           (-30.0 30.0)
  end
  begin
     id 17 
     name lclavicle
     direction 0.950993 0.301131 -0.0702275  
     length 3.41652  
     axis 0 0 0   XYZ
    dof ry rz
    limits (-20.0 10.0)
           (0.0 20.0)
  end
  begin
     id 18 
     name lhumerus
     direction 1 -4.48981e-011 -3.9662e-029   
     length 5.32955   
     axis 180 -30 -90   XYZ
    dof rx ry rz
    limits (-60.0 90.0)
           (-90.0 90.0)
           (-90.0 90.0)
  end
  begin
     id 19
     name lradius
     direction 1 -4.48925e-011 -9.0549e-027   
     length 3.69232   
     axis 180 -30 -90   XYZ
    dof rx
    limits (-10.0 170.0)
  end
  begin
     id 20
     name lwrist
     direction 1 -4.49007e-011 -1.49005e-026   
     length 1.84616   
     axis 9.0955e-015 90 90   XYZ
    dof ry
    limits (-180.0 0.0)
 end
  begin
     id 21 
     name lhand
     direction 1 -4.49016e-011 -2.98023e-026   
     length 0.536598   
     axis 1.90115e-014 90 90   XYZ
    dof rx rz
    limits (-90.0 90.0)
           (-45.0 45.0)
  end
  begin
     id 22 
     name lfingers
     direction 1 -4.48924e-011 -5.9578e-026   
     length 0.432619   
     axis 3.80223e-014 90 90   XYZ
    dof rx
    limits (0.0 90.0)
  end
  begin
     id 23
     name lthumb
     direction 0.707107 -6.34947e-011 0.707107   
     length 0.621157   
     axis -90 45 -3.84942e-014   XYZ
    dof rx rz
    limits (-45.0 45.0)
           (-45.0 45.0)
  end
  begin
     id 24 
     name rclavicle
     direction -0.955495 0.276497 -0.102848   
     length 3.36357  
     axis 0 0 0   XYZ 
    dof ry rz
    limits (-10.0 20.0)
           (-20.0 0.0)
  end
  begin
     id 25 
     name rhumerus
     direction -1 -4.48961e-011 3.30983e-027  
     length 5.23431   
     axis 180 30 90   XYZ
    dof rx ry rz
    limits (-90.0 60.0)
           (-90.0 90.0)
           (-90.0 90.0)
  end
  begin
     id 26 
     name rradius
     direction -1 -4.48965e-011 -6.63263e-027   
     length 3.55301   
     axis 180 30 90   XYZ
    dof rx
    limits (-10.0 170.0)
  end
  begin
     id 27 
     name rwrist
     direction -1 -4.48942e-011 -1.48958e-026   
     length 1.77651   
     axis 9.0955e-015 -90 -90   XYZ
    dof ry
    limits (-180.0 0.0)
  end
  begin
     id 28
     name rhand
     direction -1 -4.48977e-011 -2.97966e-026   
     length 0.772522   
     axis 1.90115e-014 -90 -90   XYZ
    dof rx rz
    limits (-90.0 90.0)
           (-45.0 45.0)
  end
  begin
     id 29
     name rfingers
     direction -1 -4.49135e-011 -5.96389e-026   
     length 0.622827   
     axis 3.80223e-014 -90 -90   XYZ
    dof rx
    limits (0.0 90.0)
  end
  begin
     id 30
     name rthumb
     direction -0.707107 -6.34969e-011 0.707107   
     length 0.894259   
     axis -90 -45 3.84942e-014   XYZ
    dof rx rz
    limits (-45.0 45.0)
           (-45.0 45.0)
  end
:hierarchy
  begin
    root lhipjoint rhipjoint lowerback
    lhipjoint lfemur
    lfemur ltibia
    ltibia lfoot
    lfoot ltoes
    rhipjoint rfemur
    rfemur rtibia
    rtibia rfoot
    rfoot rtoes
    lowerback upperback
    upperback thorax
    thorax lowerneck lclavicle rclavicle
    lowerneck upperneck
    upperneck head
    lclavicle lhumerus
    lhumerus lradius
    lradius lwrist
    lwrist lhand lthumb
    lhand lfingers
    rclavicle rhumerus
    rhumerus rradius
    rradius rwrist
    rwrist rhand rthumb
    rhand rfingers
  end

#!OML:ASF F:\VICON\USERDATA\INSTALL\rory3\rory3.ASF
:FULLY-SPECIFIED
:DEGREES
326
root 2.99403 17.8611 4.75034 1.47916 -44.4541 -3.54486
lowerback 10.564 1.76835 3.39269
upperback 0.723452 2.79695 1.21987
thorax -5.06605 1.30671 -1.04336
lowerneck -17.7801 -6.42693 -11.3628
upperneck 26.3253 -8.31758 8.21765
head 12.5324 -3.88256 3.67249
rclavicle -3.16813e-014 2.90226e-014
rhumerus -31.2896 -4.10497 -80.9841
rradius 34.7688
rwrist 2.42477
rhand -16.0672 10.8529
rfingers 7.12502
rthumb 10.1353 -18.883
lclavicle -3.16813e-014 2.90226e-014
lhumerus -38.897 5.23915 82.7557
lradius 29.6116
lwrist -8.70504
lhand -16.7706 23.3964
lfingers 7.12502
lthumb 9.45674 53.1642
rfemur 1.39742 0.332755 28.2932
rtibia 23.4726
rfoot -18.1909 -1.84569
rtoes 5.74416
lfemur -23.2557 -1.7719 -14.3619
ltibia 28.1452
lfoot -5.3853 4.04434
ltoes -9.09278
327
root 2.91352 17.8515 4.84467 1.72827 -44.5729 -3.71554
lowerback 10.426 1.79457 3.39106
upperback 0.705079 2.82966 1.28869
thorax -5.01053 1.32459 -0.97053
lowerneck -17.7744 -6.39959 -11.4603
upperneck 26.3062 -8.2815 8.33168
head 12.53 -3.86238 3.73958
rclavicle -4.45526e-014 -9.93923e-016
rhumerus -30.996 -3.92781 -80.9724
rradius 34.9952
rwrist 2.43096
rhand -16.2258 10.7524
rfingers 7.12502
rthumb 9.98234 -18.9909
lclavicle -4.45526e-014 -9.93923e-016
lhumerus -38.9529 5.64124 82.6896
lradius 29.5115
lwrist -8.85695
lhand -16.1196 23.6806
lfingers 7.12502
lthumb 10.0848 53.419
rfemur 1.75039 0.452414 28.432
rtibia 23.3744
rfoot -18.205 -1.93921
rtoes 5.41289
lfemur -23.3044 -2.16309 -14.0304
ltibia 25.9999
lfoot -5.27815 3.88353
ltoes -9.22666
328
root 2.83416 17.8428 4.94553 1.77999 -44.7009 -3.63074
lowerback 10.2698 1.85144 3.34061
upperback 0.695784 2.89026 1.22957
thorax -4.92991 1.3569 -1.00656
lowerneck -17.7338 -6.36222 -11.4802
upperneck 26.2875 -8.28151 8.51424
head 12.5242 -3.84325 3.81472
rclavicle 4.34096e-014 1.51076e-014
rhumerus -30.7796 -3.82674 -81.0287
rradius 35.2684
rwrist 2.28189
rhand -16.405 10.8695
rfingers 7.12502
rthumb 9.80939 -18.8821
lclavicle 4.34096e-014 1.51076e-014
lhumerus -38.9474 5.75967 82.6222
lradius 29.3894
lwrist -8.83841
lhand -16.2007 23.8136
lfingers 7.12502
lthumb 10.0065 53.5557
rfemur 2.15374 0.37615 28.313
rtibia 23.244
rfoot -18.3156 -2.06568
rtoes 4.07449
lfemur -23.2876 -2.7934 -13.868
ltibia 23.9574
lfoot -5.32493 3.88122
ltoes -7.66004
329
root 2.75822 17.8299 5.04868 1.72203 -44.7713 -3.46382
lowerback 10.2119 1.92158 3.34971
upperback 0.684567 2.97718 1.11745
thorax -4.89929 1.39933 -1.13829
lowerneck -17.8164 -6.41316 -11.3278
upperneck 26.3673 -8.35206 8.35848
head 12.566 -3.8764 3.71586
rclavicle 1.50281e-013 7.55382e-015
rhumerus -30.6477 -3.6162 -81.0728
rradius 35.6485
rwrist 1.84045
rhand -16.4808 10.8741
rfingers 7.12502
rthumb 9.73626 -18.8808
lclavicle 1.50281e-013 7.55382e-015
lhumerus -38.9167 5.63818 82.6034
lradius 29.2552
lwrist -8.9223
lhand -16.0613 23.7021
lfingers 7.12502
lthumb 10.141 53.4377
rfemur 2.60912 0.122201 28.0921
rtibia 23.1011
rfoot -18.4801 -2.06627
rtoes 2.76944
lfemur -23.2155 -3.55364 -13.7485
ltibia 22.0414
lfoot -5.53956 3.8408
ltoes -8.34396
330
root 2.68284 17.8121 5.14784 1.74469 -44.8837 -3.51168
lowerback 10.2219 1.96158 3.43195
upperback 0.714567 3.03682 1.07792
thorax -4.86452 1.42742 -1.23327
lowerneck -17.911 -6.46218 -11.1496
upperneck 26.4204 -8.39545 8.11123
head 12.5899 -3.9056 3.58082
rclavicle -1.41386e-014 4.17448e-015
rhumerus -30.4042 -3.38899 -81.1311
rradius 35.9382
rwrist 1.45508
rhand -16.7069 10.6516
rfingers 7.12502
rthumb 9.51815 -19.1134
lclavicle -1.41386e-014 4.17448e-015
lhumerus -38.9142 5.66481 82.5839
lradius 29.1379
lwrist -9.07141
lhand -15.8015 23.2477
lfingers 7.12502
lthumb 10.3917 52.9709
rfemur 3.1517 0.132511 28.0848
rtibia 22.9741
rfoot -18.6005 -2.12499
rtoes 2.26427
lfemur -23.1002 -4.03477 -13.5018
ltibia 20.2829
lfoot -5.78051 3.57876
ltoes -13.7874
331
root 2.60489 17.8003 5.24833 1.75229 -45.0214 -3.49224
lowerback 10.1502 1.97867 3.3836
upperback 0.730545 3.04896 1.04885
thorax -4.80803 1.43558 -1.23475
lowerneck -17.9336 -6.42375 -11.0477
upperneck 26.4296 -8.36095 8.08059
head 12.5869 -3.88355 3.5577
rclavicle -6.86801e-014 8.15017e-015
rhumerus -30.1283 -3.38045 -81.1692
rradius 36.0753
rwrist 1.47573
rhand -16.9276 10.5736
rfingers 7.12502
rthumb 9.30517 -19.201
lclavicle -6.86801e-014 8.15017e-015
lhumerus -38.9794 5.69355 82.5757
lradius 29.0739
lwrist -9.06537
lhand -16.1479 22.9356
lfingers 7.12502
lthumb 10.0575 52.6752
rfemur 3.66098 0.250275 28.0351
rtibia 22.8762
rfoot -18.6841 -2.21955
rtoes 2.00421
lfemur -23.0425 -4.54005 -13.3156
ltibia 18.7112
lfoot -6.02346 3.6031
ltoes -16.8908
